<?xml version="1.0" standalone="no"?>
<!DOCTYPE svg PUBLIC "-//W3C//DTD SVG 20010904//EN"
 "http://www.w3.org/TR/2001/REC-SVG-20010904/DTD/svg10.dtd">
<svg version="1.0" xmlns="http://www.w3.org/2000/svg"
 width="980.000000pt" height="980.000000pt" viewBox="0 0 980.000000 980.000000"
 preserveAspectRatio="xMidYMid meet">

<g transform="translate(0.000000,980.000000) scale(0.100000,-0.100000)"
fill="#000000" stroke="none">
<path d="M4545 9790 c-678 -68 -1277 -350 -1751 -824 -560 -560 -857 -1310
-831 -2096 20 -600 212 -1143 575 -1630 115 -154 390 -428 547 -546 432 -323
904 -508 1435 -564 143 -15 457 -12 604 5 981 115 1822 717 2246 1607 140 296
227 608 261 942 15 154 6 544 -16 681 -81 505 -252 913 -549 1310 -123 165
-392 433 -558 556 -391 290 -817 467 -1298 540 -155 23 -518 33 -665 19z"/>
<path d="M2365 3839 c-290 -169 -660 -426 -891 -620 -318 -266 -526 -498 -688
-769 -369 -615 -639 -1412 -761 -2250 -13 -96 -25 -181 -25 -187 0 -10 987
-13 4901 -13 l4901 0 -7 52 c-129 1051 -497 2067 -959 2653 -94 119 -350 377
-491 494 -255 212 -629 474 -920 645 l-131 76 -114 -65 c-537 -305 -1225 -564
-1750 -659 -250 -45 -321 -51 -615 -51 -267 1 -303 3 -451 27 -574 95 -1218
347 -1762 689 -52 32 -95 59 -96 59 -1 0 -64 -37 -141 -81z"/>
</g>
</svg>
